<svg width="18" height="19" viewBox="0 0 18 19" fill="none" xmlns="http://www.w3.org/2000/svg">
<path d="M12.5 11.9435H11.71L11.43 11.6735C12.41 10.5335 13 9.05348 13 7.44348C13 3.85348 10.09 0.943481 6.5 0.943481C2.91 0.943481 0 3.85348 0 7.44348C0 11.0335 2.91 13.9435 6.5 13.9435C8.11 13.9435 9.59 13.3535 10.73 12.3735L11 12.6535V13.4435L16 18.4335L17.49 16.9435L12.5 11.9435ZM6.5 11.9435C4.01 11.9435 2 9.93348 2 7.44348C2 4.95348 4.01 2.94348 6.5 2.94348C8.99 2.94348 11 4.95348 11 7.44348C11 9.93348 8.99 11.9435 6.5 11.9435Z" fill="#6656F5"/>
</svg>
